<svg xmlns="http://www.w3.org/2000/svg" width="715.467" height="748.746" viewBox="0 0 715.467 748.746">
  <g id="undraw_nature_m5ll" transform="translate(22.862)">
    <circle id="Ellipse_3" data-name="Ellipse 3" cx="75.365" cy="75.365" r="75.365" transform="translate(410.024 177.124)" fill="#00ddb3"/>
    <path id="Path_16" data-name="Path 16" d="M945.818,384.315c.166-.03.291-.146.485-.117a6.426,6.426,0,0,0-.33-.954l-.7.953Z" transform="translate(-253.697 -75.633)" fill="#fff"/>
    <path id="Path_17" data-name="Path 17" d="M440.33,506.5a175.148,175.148,0,0,0,8.182,48.416c.114.364.233.722.353,1.086H479.4c-.033-.326-.065-.69-.1-1.086-2.036-23.4-13.773-165.851.261-190.211C478.333,366.68,437.963,432.132,440.33,506.5Z" transform="translate(-253.697 -75.633)" fill="#e6e6e6"/>
    <path id="Path_18" data-name="Path 18" d="M442.621,554.914c.255.364.521.727.793,1.086h22.9c-.174-.309-.375-.673-.608-1.086-3.784-6.83-14.984-27.248-25.381-48.416-11.173-22.748-21.423-46.358-20.56-54.9C419.5,453.522,411.773,512.275,442.621,554.914Z" transform="translate(-253.697 -75.633)" fill="#e6e6e6"/>
    <path id="Path_19" data-name="Path 19" d="M680.636,558.829a152.694,152.694,0,0,1-7.133,42.21c-.1.317-.2.629-.308.947H646.577c.028-.284.057-.6.085-.947,1.775-20.4,12.008-144.591-.227-165.828C647.5,436.934,682.7,494,680.636,558.829Z" transform="translate(-253.697 -75.633)" fill="#e6e6e6"/>
    <path id="Path_20" data-name="Path 20" d="M678.638,601.039c-.222.317-.454.634-.691.947H657.979c.151-.27.327-.587.53-.947,3.3-5.954,13.063-23.755,22.127-42.21,9.741-19.832,18.677-40.416,17.924-47.866C698.792,512.644,705.532,563.865,678.638,601.039Z" transform="translate(-253.697 -75.633)" fill="#e6e6e6"/>
    <path id="Path_21" data-name="Path 21" d="M376.281,136.806l12.413-9.928c-9.643-1.064-13.606,4.2-15.227,8.358-7.534-3.128-15.735.972-15.735.972l24.837,9.017a18.8,18.8,0,0,0-6.288-8.418Z" transform="translate(-253.697 -75.633)" fill="#3f3d56"/>
    <path id="Path_22" data-name="Path 22" d="M750.165,85.7l12.414-9.928c-9.643-1.064-13.606,4.2-15.227,8.358-7.534-3.128-15.735.972-15.735.972l24.837,9.017a18.8,18.8,0,0,0-6.288-8.418Z" transform="translate(-253.697 -75.633)" fill="#3f3d56"/>
    <path id="Path_23" data-name="Path 23" d="M932.807,478.323q0,12.34-.86,24.478a344.113,344.113,0,0,1-63.923,177.14q-7.324,10.222-15.381,19.871a347.521,347.521,0,0,1-46.153,45.845l-73.571-43.17L688.931,599.82S754.563,466.933,932.69,469.343Q932.8,473.817,932.807,478.323Z" transform="translate(-253.697 -75.633)" fill="#3f563d"/>
    <path id="Path_24" data-name="Path 24" d="M931.947,502.8A346.076,346.076,0,0,1,802.659,748.768l-68.349-40.1L695.3,617.611S758.511,489.628,931.947,502.8Z" transform="translate(-253.697 -75.633)" fill="#5ad710"/>
    <path id="Path_25" data-name="Path 25" d="M868.025,679.941q-7.324,10.222-15.381,19.871a346.169,346.169,0,0,1-133.981,98.527q-15.795,6.512-32.333,11.485a378.838,378.838,0,0,1-240.246-15.253A347.292,347.292,0,0,1,274.114,626.824q-7.165-15.062-12.886-30.889C327.751,547.2,458.833,477.421,601.7,545.228q59.278,28.135,105.862,51.291C786.365,635.582,838.813,663.743,868.025,679.941Z" transform="translate(-253.697 -75.633)" fill="#3f563d"/>
    <path id="Path_26" data-name="Path 26" d="M852.644,699.812a346.28,346.28,0,0,1-578.53-72.987c55.558-43.935,183.7-122.888,324.326-56.153q54.247,25.746,96.86,46.939C778.117,658.658,829.132,686.554,852.644,699.812Z" transform="translate(-253.697 -75.633)" fill="#5ad710"/>
    <path id="Path_27" data-name="Path 27" d="M754.584,781.026a349.553,349.553,0,0,1-35.921,17.313A346.414,346.414,0,0,1,310.544,686.8C393.191,678.083,621.644,666.333,754.584,781.026Z" transform="translate(-253.697 -75.633)" fill="#3f563d"/>
    <path id="Path_28" data-name="Path 28" d="M718.663,798.339A346.418,346.418,0,0,1,334.7,715.416C364.765,711,600.775,680.674,718.663,798.339Z" transform="translate(-253.697 -75.633)" fill="#5ad710"/>
    <path id="Path_29" data-name="Path 29" d="M874.765,286.428v.011c-247.092-182.692-530.19-54.1-532.376-53.117v-.011A345,345,0,0,1,586.763,132.279C706.892,132.279,812.721,193.5,874.765,286.428Z" transform="translate(-253.697 -75.633)" fill="#e6e6e6"/>
    <ellipse id="Ellipse_4" data-name="Ellipse 4" cx="76.906" cy="156.919" rx="76.906" ry="156.919" transform="translate(-22.862 114.184) rotate(-10.221)" fill="#3e563d"/>
    <path id="Path_30" data-name="Path 30" d="M372.949,584.638C370.471,397.3,307.791,221.5,307.159,219.745l-5.716,2.062c.63,1.744,62.966,176.627,65.431,362.913Z" transform="translate(-253.697 -75.633)" fill="#5ad710"/>
    <rect id="Rectangle_6" data-name="Rectangle 6" width="6.078" height="78.867" transform="translate(6.176 239.56) rotate(-72.079)" fill="#5ad710"/>
    <rect id="Rectangle_7" data-name="Rectangle 7" width="78.87" height="6.078" transform="translate(87.374 276.228) rotate(-38.378)" fill="#5ad710"/>
    <ellipse id="Ellipse_5" data-name="Ellipse 5" cx="83.219" cy="169.801" rx="83.219" ry="169.801" transform="translate(226.28 42.788)" fill="#3e563d"/>
    <path id="Path_31" data-name="Path 31" d="M555.512,566.159c33.33-199.975.336-399.227,0-401.215l-6.483,1.1c.336,1.978,33.141,200.183,0,399.037Z" transform="translate(-253.697 -75.633)" fill="#5ad710"/>
    <rect id="Rectangle_8" data-name="Rectangle 8" width="6.577" height="85.341" transform="translate(233.128 181.878) rotate(-61.858)" fill="#5ad710"/>
    <rect id="Rectangle_9" data-name="Rectangle 9" width="85.344" height="6.577" transform="translate(312.56 236.516) rotate(-28.158)" fill="#5ad710"/>
    <path id="Path_32" data-name="Path 32" d="M924.676,403.4A634.4,634.4,0,0,0,829.3,359.8c-182.14-65.907-362.751-40.506-433.446,53.817,55.017-115.553,251.327-151.888,449.432-80.206a646.9,646.9,0,0,1,67.585,28.872,343.52,343.52,0,0,1,11.8,41.122Z" transform="translate(-253.697 -75.633)" fill="#e6e6e6"/>
    <path id="Path_33" data-name="Path 33" d="M678.684,217.456l12.414-9.928c-9.643-1.064-13.606,4.2-15.227,8.358-7.534-3.128-15.735.971-15.735.971l24.837,9.017A18.794,18.794,0,0,0,678.684,217.456Z" transform="translate(-253.697 -75.633)" fill="#3f3d56"/>
  </g>
</svg>
