<svg width="15" height="17" viewBox="0 0 15 17" fill="none" xmlns="http://www.w3.org/2000/svg">
<path d="M0.59375 2.20867C0.597943 1.77183 0.774154 1.35424 1.08418 1.04645C1.39421 0.738664 1.81306 0.565481 2.24992 0.564453L12.758 0.53125C13.1945 0.531336 13.613 0.704467 13.922 1.01268C14.231 1.3209 14.4051 1.73906 14.4062 2.17547V13.0156C14.4062 13.9221 13.6665 14.6094 12.758 14.6094H3.78125L4.21289 13.1484L0.59375 16.4688V2.20867ZM5.22061 10.9507C5.22061 10.9507 5.51014 10.6057 5.75186 10.3092C4.69799 10.0124 4.2959 9.36328 4.2959 9.36328C4.58535 9.55529 4.89555 9.71401 5.22061 9.83643C5.59592 9.99226 5.98669 10.1079 6.38637 10.1814C7.07502 10.3079 7.7812 10.3052 8.46887 10.1734C8.87337 10.0983 9.26927 9.98263 9.65057 9.82812C9.85228 9.75087 10.0484 9.65978 10.2376 9.55553C10.2618 9.53959 10.2857 9.53162 10.31 9.51535C10.3262 9.50738 10.3342 9.49941 10.3432 9.49941C10.4879 9.41906 10.5683 9.36295 10.5683 9.36295C10.5683 9.36295 10.1825 9.9968 9.16115 10.3013C9.40254 10.6061 9.70004 10.959 9.70004 10.959C11.4767 10.9029 12.1521 9.74811 12.1521 9.74811C12.1521 7.18947 10.9943 5.11229 10.9943 5.11229C9.8365 4.25398 8.74312 4.27822 8.74312 4.27822L8.66277 4.37451C10.1101 4.78357 10.7692 5.41709 10.7692 5.41709C10.7692 5.41709 10.5925 5.3208 10.295 5.1923C9.43475 4.81545 8.75109 4.71916 8.46887 4.68728C8.42382 4.67792 8.37805 4.67248 8.33207 4.67102C7.79331 4.60111 7.24813 4.59576 6.70811 4.65508C5.86018 4.75248 5.0387 5.01113 4.28793 5.41709C4.28793 5.41709 4.92311 4.81445 6.29008 4.40605L6.17752 4.27789C6.17752 4.27789 5.07617 4.25365 3.92601 5.11328C3.92601 5.11328 2.76822 7.19047 2.76822 9.7491C2.76822 9.7398 3.44391 10.8946 5.22061 10.9507Z" fill="white"/>
</svg>
