<svg width="336" height="281" viewBox="0 0 336 281" fill="none" xmlns="http://www.w3.org/2000/svg">
<path d="M335.295 97.8655C335.295 97.8655 82.1174 62.3787 154.61 259.736C154.61 259.736 177.094 223.206 227.944 182.981C222.353 175.356 222.937 164.604 229.786 157.649L232.11 155.287L245.589 141.597L246.663 140.504C248.191 138.958 250.683 138.936 252.233 140.453C253.782 141.976 253.804 144.462 252.284 146.007L251.209 147.101L240.487 157.984C238.959 159.53 238.981 162.023 240.538 163.539C242.087 165.063 244.587 165.041 246.108 163.488L256.83 152.605L257.905 151.511C259.432 149.966 261.925 149.944 263.474 151.46C265.024 152.984 265.046 155.469 263.525 157.015L262.451 158.108L251.728 168.992C250.201 170.538 250.223 173.031 251.78 174.547C253.329 176.07 255.829 176.049 257.349 174.496L268.072 163.612L269.146 162.519C270.674 160.973 273.166 160.951 274.716 162.468C276.265 163.991 276.287 166.477 274.767 168.023L273.693 169.116L260.214 182.806L257.89 185.168C250.924 192.239 239.931 192.924 232.162 187.202C213.289 208.124 188.262 239.266 177.079 267.973C177.086 267.995 327.723 333.975 335.295 97.8655Z" fill="#72BF44"/>
<path d="M74.0992 0C74.0992 0 -120.758 228.477 121.5 281C121.5 281 99.5646 236.241 91.4148 161.352C78.6821 161.17 67.9886 151.307 67.0457 138.404L67.0384 138.346C66.1906 126.303 69.3774 114.902 75.4368 105.454C81.8177 95.5183 95.9319 94.5487 103.636 103.501C110.865 111.898 115.579 122.563 116.515 134.424C117.458 146.365 109.768 157.168 98.6655 160.39C107.488 191.416 122.099 233.434 142.492 262.017C122.859 207.431 125.293 164.042 149.764 133.046C158.075 122.52 168.768 113.619 181.772 106.387C164.324 74.5163 131.243 38.7526 74.0992 0Z" fill="#50B848"/>
</svg>
