<svg width="73" height="62" viewBox="0 0 73 62" fill="none" xmlns="http://www.w3.org/2000/svg">
<path d="M72.9999 21.3071C72.9999 21.3071 17.8784 13.581 33.6615 56.5493C33.6615 56.5493 38.5565 48.5962 49.6276 39.8384C48.4102 38.1783 48.5375 35.8373 50.0286 34.3231L50.5347 33.8089L53.4691 30.8283L53.703 30.5902C54.0356 30.2538 54.5783 30.249 54.9157 30.5791C55.253 30.9108 55.2578 31.452 54.9268 31.7885L54.6929 32.0266L52.3583 34.3962C52.0258 34.7326 52.0305 35.2754 52.3695 35.6055C52.7069 35.9373 53.2511 35.9325 53.5821 35.5944L55.9166 33.2249L56.1506 32.9868C56.4832 32.6503 57.0258 32.6456 57.3632 32.9757C57.7005 33.3074 57.7053 33.8486 57.3743 34.1851L57.1404 34.4231L54.8059 36.7927C54.4733 37.1292 54.478 37.672 54.817 38.0021C55.1544 38.3338 55.6986 38.3291 56.0296 37.991L58.3641 35.6214L58.5981 35.3833C58.9307 35.0469 59.4733 35.0421 59.8107 35.3722C60.1481 35.7039 60.1528 36.2452 59.8218 36.5816L59.5879 36.8197L56.6534 39.8003L56.1474 40.3146C54.6308 41.8541 52.2374 42.0033 50.5458 40.7574C46.4369 45.3124 40.9881 52.0926 38.5533 58.3427C38.5549 58.3475 71.3512 72.7126 72.9999 21.3071Z" fill="#72BF44"/>
<path d="M16.1328 0C16.1328 0 -26.2913 49.7437 26.4527 61.179C26.4527 61.179 21.6771 51.434 19.9027 35.1295C17.1306 35.0898 14.8024 32.9424 14.5971 30.1332L14.5955 30.1205C14.4109 27.4986 15.1048 25.0163 16.424 22.9594C17.8133 20.7961 20.8862 20.585 22.5635 22.534C24.1373 24.3624 25.1637 26.6844 25.3674 29.2666C25.5727 31.8663 23.8986 34.2185 21.4813 34.92C23.4021 41.6748 26.5832 50.823 31.0231 57.0461C26.7487 45.1617 27.2787 35.7151 32.6065 28.9666C34.4159 26.6748 36.7441 24.737 39.5751 23.1625C35.7765 16.2236 28.574 8.43716 16.1328 0Z" fill="#50B848"/>
</svg>
