<svg width="21" height="21" viewBox="0 0 21 21" fill="none" xmlns="http://www.w3.org/2000/svg">
<path d="M13.6722 2.71348C14.6402 2.71637 15.5677 3.10218 16.2522 3.78666C16.9367 4.47114 17.3225 5.39866 17.3254 6.36665V13.6722C17.3225 14.6402 16.9367 15.5677 16.2522 16.2522C15.5677 16.9367 14.6402 17.3225 13.6722 17.3254H6.36665C5.39866 17.3225 4.47114 16.9367 3.78666 16.2522C3.10218 15.5677 2.71637 14.6402 2.71348 13.6722V6.36665C2.71637 5.39866 3.10218 4.47114 3.78666 3.78666C4.47114 3.10218 5.39866 2.71637 6.36665 2.71348H13.6722ZM13.6722 1.25244H6.36665C3.55378 1.25244 1.25244 3.55378 1.25244 6.36665V13.6722C1.25244 16.4851 3.55378 18.7864 6.36665 18.7864H13.6722C16.4851 18.7864 18.7864 16.4851 18.7864 13.6722V6.36665C18.7864 3.55378 16.4851 1.25244 13.6722 1.25244Z" fill="white"/>
<path d="M14.7679 6.36655C14.5512 6.36655 14.3393 6.30228 14.1591 6.18186C13.9788 6.06145 13.8384 5.8903 13.7554 5.69005C13.6725 5.48981 13.6508 5.26946 13.6931 5.05688C13.7354 4.84431 13.8397 4.64904 13.993 4.49578C14.1463 4.34252 14.3415 4.23815 14.5541 4.19586C14.7667 4.15358 14.987 4.17528 15.1873 4.25822C15.3875 4.34117 15.5587 4.48163 15.6791 4.66184C15.7995 4.84206 15.8638 5.05394 15.8638 5.27068C15.8641 5.41468 15.8359 5.55732 15.781 5.69042C15.726 5.82351 15.6453 5.94445 15.5435 6.04627C15.4417 6.14809 15.3207 6.2288 15.1876 6.28376C15.0545 6.33873 14.9119 6.36686 14.7679 6.36655ZM10.0192 7.09687C10.5972 7.09687 11.1623 7.26827 11.6429 7.5894C12.1235 7.91052 12.498 8.36695 12.7192 8.90096C12.9404 9.43497 12.9983 10.0226 12.8855 10.5895C12.7728 11.1564 12.4944 11.6771 12.0857 12.0858C11.677 12.4945 11.1563 12.7729 10.5894 12.8856C10.0225 12.9984 9.43487 12.9405 8.90086 12.7193C8.36685 12.4981 7.91043 12.1236 7.5893 11.643C7.26818 11.1624 7.09678 10.5973 7.09678 10.0193C7.09761 9.2445 7.40577 8.50165 7.95366 7.95376C8.50155 7.40587 9.24441 7.0977 10.0192 7.09687ZM10.0192 5.63584C9.15227 5.63584 8.30476 5.89293 7.5839 6.37459C6.86304 6.85626 6.30119 7.54086 5.96942 8.34184C5.63764 9.14282 5.55083 10.0242 5.71997 10.8745C5.88911 11.7248 6.3066 12.5059 6.91964 13.1189C7.53268 13.732 8.31375 14.1495 9.16406 14.3186C10.0144 14.4877 10.8958 14.4009 11.6967 14.0692C12.4977 13.7374 13.1823 13.1755 13.664 12.4547C14.1456 11.7338 14.4027 10.8863 14.4027 10.0193C14.4027 8.85676 13.9409 7.7418 13.1188 6.91974C12.2968 6.09767 11.1818 5.63584 10.0192 5.63584Z" fill="white"/>
</svg>
