<svg xmlns="http://www.w3.org/2000/svg" width="831" height="704" viewBox="0 0 831 704">
  <g id="undraw_Mobile_apps_re_3wjf" transform="translate(0 0)">
    <path id="Path_52" data-name="Path 52" d="M908.476,788.577v-72.34S936.668,767.523,908.476,788.577Z" transform="translate(-184.5 -85.005)" fill="#f1f1f1"/>
    <path id="Path_53" data-name="Path 53" d="M910.218,788.564l-53.29-48.921S913.773,753.558,910.218,788.564Z" transform="translate(-184.5 -85.005)" fill="#f1f1f1"/>
    <path id="Path_54" data-name="Path 54" d="M290.959,788.577v-72.34S262.767,767.523,290.959,788.577Z" transform="translate(-184.5 -85.005)" fill="#f1f1f1"/>
    <path id="Path_55" data-name="Path 55" d="M289.218,788.564l53.29-48.921S285.662,753.558,289.218,788.564Z" transform="translate(-184.5 -85.005)" fill="#f1f1f1"/>
    <path id="Path_56" data-name="Path 56" d="M775.256,252.054h-3.862V146.245a61.239,61.239,0,0,0-61.239-61.239H485.984a61.239,61.239,0,0,0-61.239,61.239V726.72a61.239,61.239,0,0,0,61.239,61.239h224.17a61.239,61.239,0,0,0,61.24-61.239V327.37h3.862Z" transform="translate(-184.5 -85.005)" fill="#3f3d56"/>
    <path id="Path_57" data-name="Path 57" d="M712.625,100.938H683.363a21.728,21.728,0,0,1-20.117,29.933H534.822a21.728,21.728,0,0,1-20.117-29.934h-27.33a45.733,45.733,0,0,0-45.733,45.733V726.294a45.733,45.733,0,0,0,45.733,45.733h225.25a45.733,45.733,0,0,0,45.733-45.733h0V146.67a45.733,45.733,0,0,0-45.733-45.733Z" transform="translate(-184.5 -85.005)" fill="#fff"/>
    <path id="Path_58" data-name="Path 58" d="M706.983,762.075H493.017c-24.585,0-44.587-17.853-44.587-39.8V693.469c0-17.49,15.929-31.719,35.508-31.719H716.061c19.579,0,35.508,14.229,35.508,31.719v28.811C751.569,744.223,731.568,762.075,706.983,762.075Z" transform="translate(-184.5 -85.005)" fill="#e5e5e5"/>
    <path id="Path_59" data-name="Path 59" d="M515.509,277.85H467.782a3.229,3.229,0,0,1-3.225-3.225V226.9a3.229,3.229,0,0,1,3.225-3.225h47.727a3.229,3.229,0,0,1,3.225,3.225v47.728A3.229,3.229,0,0,1,515.509,277.85Z" transform="translate(-184.5 -85.005)" fill="#5ad710"/>
    <path id="Path_60" data-name="Path 60" d="M587.746,277.85H540.018a3.229,3.229,0,0,1-3.225-3.225V226.9a3.229,3.229,0,0,1,3.225-3.225h47.727a3.229,3.229,0,0,1,3.225,3.225v47.728A3.229,3.229,0,0,1,587.746,277.85Z" transform="translate(-184.5 -85.005)" fill="#e5e5e5"/>
    <path id="Path_61" data-name="Path 61" d="M659.982,277.85H612.254a3.229,3.229,0,0,1-3.225-3.225V226.9a3.229,3.229,0,0,1,3.225-3.225h47.727a3.229,3.229,0,0,1,3.225,3.225v47.728A3.229,3.229,0,0,1,659.982,277.85Z" transform="translate(-184.5 -85.005)" fill="#e5e5e5"/>
    <path id="Path_62" data-name="Path 62" d="M732.218,277.85H684.491a3.229,3.229,0,0,1-3.225-3.225V226.9a3.229,3.229,0,0,1,3.225-3.225h47.728a3.229,3.229,0,0,1,3.225,3.225v47.728a3.229,3.229,0,0,1-3.225,3.225Z" transform="translate(-184.5 -85.005)" fill="#e5e5e5"/>
    <path id="Path_63" data-name="Path 63" d="M515.339,366.211H467.611a3.229,3.229,0,0,1-3.225-3.225V315.258a3.229,3.229,0,0,1,3.225-3.225h47.728a3.229,3.229,0,0,1,3.225,3.225v47.728A3.229,3.229,0,0,1,515.339,366.211Z" transform="translate(-184.5 -85.005)" fill="#e5e5e5"/>
    <path id="Path_64" data-name="Path 64" d="M587.575,366.211H539.847a3.229,3.229,0,0,1-3.225-3.225V315.258a3.229,3.229,0,0,1,3.225-3.225h47.727a3.229,3.229,0,0,1,3.225,3.225v47.728a3.229,3.229,0,0,1-3.225,3.225Z" transform="translate(-184.5 -85.005)" fill="#e5e5e5"/>
    <path id="Path_65" data-name="Path 65" d="M659.811,366.211H612.084a3.229,3.229,0,0,1-3.225-3.225V315.258a3.229,3.229,0,0,1,3.225-3.225h47.727a3.229,3.229,0,0,1,3.225,3.225v47.728a3.229,3.229,0,0,1-3.225,3.225Z" transform="translate(-184.5 -85.005)" fill="#5ad710"/>
    <path id="Path_66" data-name="Path 66" d="M732.047,366.211H684.32a3.229,3.229,0,0,1-3.225-3.225V315.258a3.229,3.229,0,0,1,3.225-3.225h47.727a3.229,3.229,0,0,1,3.225,3.225v47.728A3.229,3.229,0,0,1,732.047,366.211Z" transform="translate(-184.5 -85.005)" fill="#5ad710"/>
    <path id="Path_67" data-name="Path 67" d="M515.168,454.571H467.44a3.229,3.229,0,0,1-3.225-3.225V403.619a3.229,3.229,0,0,1,3.225-3.225h47.728a3.229,3.229,0,0,1,3.225,3.225v47.727A3.229,3.229,0,0,1,515.168,454.571Z" transform="translate(-184.5 -85.005)" fill="#e5e5e5"/>
    <path id="Path_68" data-name="Path 68" d="M587.4,454.571H539.677a3.229,3.229,0,0,1-3.225-3.225V403.619a3.229,3.229,0,0,1,3.225-3.225H587.4a3.229,3.229,0,0,1,3.225,3.225v47.727A3.229,3.229,0,0,1,587.4,454.571Z" transform="translate(-184.5 -85.005)" fill="#e5e5e5"/>
    <path id="Path_69" data-name="Path 69" d="M659.64,454.571H611.913a3.229,3.229,0,0,1-3.225-3.225V403.619a3.229,3.229,0,0,1,3.225-3.225h47.727a3.229,3.229,0,0,1,3.225,3.225v47.728a3.229,3.229,0,0,1-3.225,3.225Z" transform="translate(-184.5 -85.005)" fill="#e5e5e5"/>
    <path id="Path_70" data-name="Path 70" d="M731.877,454.571H684.149a3.229,3.229,0,0,1-3.225-3.225V403.619a3.229,3.229,0,0,1,3.225-3.225h47.727a3.229,3.229,0,0,1,3.225,3.225v47.728a3.229,3.229,0,0,1-3.225,3.225Z" transform="translate(-184.5 -85.005)" fill="#e5e5e5"/>
    <path id="Path_71" data-name="Path 71" d="M515,542.931H467.27a3.229,3.229,0,0,1-3.225-3.225V491.979a3.229,3.229,0,0,1,3.225-3.225H515a3.229,3.229,0,0,1,3.225,3.225v47.727A3.229,3.229,0,0,1,515,542.931Z" transform="translate(-184.5 -85.005)" fill="#e5e5e5"/>
    <path id="Path_72" data-name="Path 72" d="M587.234,542.931H539.506a3.229,3.229,0,0,1-3.225-3.225V491.979a3.229,3.229,0,0,1,3.225-3.225h47.727a3.229,3.229,0,0,1,3.225,3.225v47.728a3.229,3.229,0,0,1-3.225,3.225Z" transform="translate(-184.5 -85.005)" fill="#e5e5e5"/>
    <path id="Path_73" data-name="Path 73" d="M659.47,542.931H611.742a3.229,3.229,0,0,1-3.225-3.225V491.979a3.229,3.229,0,0,1,3.225-3.225H659.47a3.229,3.229,0,0,1,3.225,3.225v47.728a3.229,3.229,0,0,1-3.225,3.225Z" transform="translate(-184.5 -85.005)" fill="#e5e5e5"/>
    <path id="Path_74" data-name="Path 74" d="M731.706,542.931H683.978a3.229,3.229,0,0,1-3.225-3.225V491.979a3.229,3.229,0,0,1,3.225-3.225h47.728a3.229,3.229,0,0,1,3.225,3.225v47.727a3.229,3.229,0,0,1-3.225,3.225Z" transform="translate(-184.5 -85.005)" fill="#e5e5e5"/>
    <path id="Path_75" data-name="Path 75" d="M515.509,740.291H467.782a3.229,3.229,0,0,1-3.225-3.225V689.339a3.229,3.229,0,0,1,3.225-3.225h47.727a3.229,3.229,0,0,1,3.225,3.225v47.727a3.229,3.229,0,0,1-3.225,3.225Z" transform="translate(-184.5 -85.005)" fill="#fff"/>
    <path id="Path_76" data-name="Path 76" d="M587.746,740.291H540.018a3.229,3.229,0,0,1-3.225-3.225V689.339a3.229,3.229,0,0,1,3.225-3.225h47.727a3.229,3.229,0,0,1,3.225,3.225v47.727a3.229,3.229,0,0,1-3.225,3.225Z" transform="translate(-184.5 -85.005)" fill="#fff"/>
    <path id="Path_77" data-name="Path 77" d="M659.982,740.291H612.254a3.229,3.229,0,0,1-3.225-3.225V689.339a3.229,3.229,0,0,1,3.225-3.225h47.727a3.229,3.229,0,0,1,3.225,3.225v47.727a3.229,3.229,0,0,1-3.225,3.225Z" transform="translate(-184.5 -85.005)" fill="#fff"/>
    <path id="Path_78" data-name="Path 78" d="M732.218,740.291H684.491a3.229,3.229,0,0,1-3.225-3.225V689.339a3.229,3.229,0,0,1,3.225-3.225h47.728a3.229,3.229,0,0,1,3.225,3.225v47.727a3.229,3.229,0,0,1-3.225,3.225Z" transform="translate(-184.5 -85.005)" fill="#fff"/>
    <circle id="Ellipse_9" data-name="Ellipse 9" cx="6.45" cy="6.45" r="6.45" transform="translate(385.661 541.772)" fill="#e5e5e5"/>
    <circle id="Ellipse_10" data-name="Ellipse 10" cx="6.45" cy="6.45" r="6.45" transform="translate(408.88 541.772)" fill="#e5e5e5"/>
    <circle id="Ellipse_11" data-name="Ellipse 11" cx="6.45" cy="6.45" r="6.45" transform="translate(432.098 541.772)" fill="#e5e5e5"/>
    <path id="Path_79" data-name="Path 79" d="M1014.5,789.005h-829a1,1,0,0,1,0-2h829a1,1,0,0,1,0,2Z" transform="translate(-184.5 -85.005)" fill="#cbcbcb"/>
  </g>
</svg>
