<svg width="60" height="60" viewBox="0 0 60 60" fill="none" xmlns="http://www.w3.org/2000/svg">
<path d="M5.625 6.97183V53.0265C5.62531 53.1264 5.65511 53.2241 5.71067 53.3071C5.76623 53.3902 5.84507 53.455 5.9373 53.4934C6.02954 53.5318 6.13107 53.5421 6.22915 53.5231C6.32724 53.504 6.41752 53.4564 6.48867 53.3863L30.4687 30.0004L6.48867 6.61207C6.41752 6.54192 6.32724 6.49433 6.22915 6.47529C6.13107 6.45624 6.02954 6.46657 5.9373 6.50499C5.84507 6.54341 5.76623 6.60821 5.71067 6.69126C5.65511 6.77431 5.62531 6.87192 5.625 6.97183ZM40.5234 20.391L10.4555 3.82535L10.4367 3.8148C9.91875 3.53355 9.42656 4.23433 9.85078 4.64215L33.4207 27.1796L40.5234 20.391ZM9.85313 55.3586C9.42656 55.7664 9.91875 56.4672 10.4391 56.1859L10.4578 56.1754L40.5234 39.6097L33.4207 32.8187L9.85313 55.3586ZM52.6617 27.0707L44.2652 22.4464L36.3703 30.0004L44.2652 37.5507L52.6617 32.93C54.9457 31.6679 54.9457 28.3328 52.6617 27.0707Z" fill="white"/>
</svg>
