<svg width="56" height="56" viewBox="0 0 56 56" fill="none" xmlns="http://www.w3.org/2000/svg">
<path d="M28 0.875C13.0159 0.875 0.875 13.0159 0.875 28C0.875 42.9841 13.0159 55.125 28 55.125C42.9841 55.125 55.125 42.9841 55.125 28C55.125 13.0159 42.9841 0.875 28 0.875ZM17.707 39.8539C17.5406 40.1378 17.3023 40.3728 17.0162 40.5355C16.7301 40.6981 16.4062 40.7825 16.0771 40.7802C15.7417 40.7831 15.4121 40.6926 15.1253 40.5187C14.9118 40.3949 14.7248 40.2302 14.575 40.034C14.4253 39.8378 14.3158 39.614 14.2528 39.3753C14.1898 39.1367 14.1745 38.888 14.2079 38.6434C14.2412 38.3989 14.3226 38.1633 14.4472 37.9503L16.2987 34.8721C16.3923 34.7132 16.5258 34.5815 16.6859 34.4902C16.8461 34.3989 17.0274 34.351 17.2118 34.3514H17.4854C18.8284 34.3514 19.768 35.1591 20.0417 35.9413L17.707 39.8539ZM33.3826 33.7992L21.2575 33.8125H13.1987C12.9452 33.8136 12.694 33.7631 12.4606 33.6642C12.2271 33.5653 12.0162 33.42 11.8405 33.2372C11.6649 33.0543 11.5282 32.8376 11.4389 32.6004C11.3495 32.3631 11.3092 32.1101 11.3205 31.8568C11.3593 30.8396 12.2469 30.0695 13.258 30.0695H19.0996L26.025 18.281L23.7823 14.4605C23.2773 13.5898 23.5014 12.4419 24.3672 11.8945C24.5806 11.7565 24.8198 11.663 25.0703 11.6198C25.3208 11.5765 25.5775 11.5844 25.8248 11.6429C26.0722 11.7013 26.3052 11.8092 26.5098 11.9601C26.7145 12.1109 26.8865 12.3016 27.0155 12.5206L28.2143 14.5683H28.2277L29.4277 12.5206C29.5569 12.3027 29.7286 12.1131 29.9327 11.963C30.1367 11.8129 30.3689 11.7055 30.6154 11.647C30.8618 11.5886 31.1175 11.5804 31.3672 11.6229C31.6169 11.6655 31.8555 11.7578 32.0688 11.8945C32.9297 12.4419 33.1513 13.5898 32.6427 14.4641L30.4001 18.2846L28.2204 22.001L23.4868 30.0731V30.0864H30.463C31.3373 30.0864 32.4332 30.5563 32.8764 31.3119L32.9152 31.3906C33.3063 32.0554 33.5279 32.512 33.5279 33.1768C33.5215 33.3926 33.4734 33.6052 33.3862 33.8028L33.3826 33.7992ZM42.7977 33.8125H39.5148V33.8258L41.9149 37.9079C42.173 38.3378 42.252 38.8519 42.1349 39.3395C42.0178 39.8271 41.714 40.2492 41.2888 40.515C40.9941 40.6947 40.6556 40.7898 40.3104 40.7899C39.9822 40.7898 39.6596 40.7047 39.374 40.543C39.0884 40.3814 38.8495 40.1485 38.6805 39.8672L35.1336 33.8295L32.9297 30.0755L30.0864 25.2148C29.6746 24.5208 29.4508 23.7314 29.437 22.9245C29.4232 22.1176 29.6199 21.321 30.0077 20.6133C30.5696 19.6215 30.9995 19.3612 30.9995 19.3612L37.3242 30.0586H42.7625C43.7797 30.0586 44.6528 30.8409 44.7 31.8447C44.7098 32.0999 44.6679 32.3545 44.5769 32.5931C44.4858 32.8318 44.3474 33.0495 44.1701 33.2333C43.9927 33.4171 43.78 33.5632 43.5448 33.6627C43.3096 33.7622 43.0567 33.8132 42.8013 33.8125H42.7977Z" fill="white"/>
</svg>
