<svg width="85" height="85" viewBox="0 0 85 85" fill="none" xmlns="http://www.w3.org/2000/svg">
<path d="M42.5 85C65.9721 85 85 65.9721 85 42.5C85 19.0279 65.9721 0 42.5 0C19.0279 0 0 19.0279 0 42.5C0 65.9721 19.0279 85 42.5 85Z" fill="white"/>
<path d="M30.6648 66.8125C28.787 66.8125 29.1063 66.1147 28.4586 64.355L22.9375 46.4717L65.4375 21.6562" fill="#56CC0F"/>
<path d="M30.9062 66.8125C32.3551 66.8125 32.995 66.2169 33.804 65.5101L41.5312 58.756L31.8924 53.5312" fill="#48AC0D"/>
<path d="M31.9745 54.0592L55.5999 71.4014C58.2961 72.8794 60.2415 72.1139 60.9132 68.9148L70.53 23.8893C71.5144 19.9674 69.0253 18.188 66.4458 19.3514L9.97631 40.9854C6.12178 42.5216 6.14474 44.6583 9.2738 45.6101L23.7652 50.1043L57.3142 29.0751C58.898 28.1208 60.3519 28.6334 59.1589 29.6857" fill="#56CC0F"/>
</svg>
