<svg width="14" height="14" viewBox="0 0 14 14" fill="none" xmlns="http://www.w3.org/2000/svg">
<path d="M7 14C10.866 14 14 10.866 14 7C14 3.13401 10.866 0 7 0C3.13401 0 0 3.13401 0 7C0 10.866 3.13401 14 7 14Z" fill="white"/>
<path d="M5.21023 10.9375C4.90095 10.9375 4.95353 10.8226 4.84686 10.5327L3.9375 7.58726L10.9375 3.5" fill="#393939"/>
<path d="M5.25 10.9375C5.48864 10.9375 5.59403 10.8394 5.72727 10.723L7 9.61054L5.41243 8.75" fill="#393939"/>
<path d="M5.42594 8.83695L9.31719 11.6933C9.76128 11.9367 10.0817 11.8107 10.1923 11.2838L11.7763 3.86779C11.9384 3.22183 11.5284 2.92875 11.1036 3.12038L1.80272 6.68362C1.16785 6.93665 1.17163 7.28857 1.68701 7.44534L4.07382 8.18556L9.59954 4.72193C9.86041 4.56475 10.0999 4.64918 9.90338 4.8225" fill="#393939"/>
</svg>
