<svg xmlns="http://www.w3.org/2000/svg" width="694.444" height="791.716" viewBox="0 0 694.444 791.716">
  <g id="undraw_Hiking_re_k0bc" transform="translate(-121.176)">
    <path id="Path_1" data-name="Path 1" d="M928.97,754.032s-.622-13.027-13.366-11.513" transform="translate(-794.428 -45.397)" fill="#3f3d56"/>
    <ellipse id="Ellipse_1" data-name="Ellipse 1" cx="6.379" cy="6.379" rx="6.379" ry="6.379" transform="translate(131.765 683.482)" fill="#5ad710"/>
    <rect id="Rectangle_1" data-name="Rectangle 1" width="1.801" height="12.604" transform="translate(137.381 700.602)" fill="#3f3d56"/>
    <path id="Path_2" data-name="Path 2" d="M193.317,371.062q0,4.785.31,9.49a143.754,143.754,0,0,0,13.47,52.19c.06.14.13.27.19.4.36.76.73,1.52,1.11,2.27a142.036,142.036,0,0,0,7.65,13.5,144.462,144.462,0,0,0,118.56,66.72l-1.43,82.24-18.65-9.82-3.33,6.33,21.84,11.5-2.67,152.74-.03,2.04,14.42,3.21-.03-2.05-4.54-246.18a144.175,144.175,0,0,0,102-44.38c.91-.94,1.81-1.91,2.69-2.87.04-.04.07-.08.1-.11a144.768,144.768,0,0,0,26.34-40.76c-.14.16-.29.31-.43.47a144.642,144.642,0,0,0-68.58-186.38c-.5-.25-1.01-.49-1.51-.74a144.752,144.752,0,0,0-187.53,56.93c-.88,1.48-1.73,2.99-2.55,4.51A143.852,143.852,0,0,0,193.317,371.062Z" transform="translate(333.055 -46.312)" fill="#e5e5e5"/>
    <ellipse id="Ellipse_2" data-name="Ellipse 2" cx="189.539" cy="189.539" rx="189.539" ry="189.539" transform="translate(354.017)" fill="#5ad710"/>
    <path id="Path_3" data-name="Path 3" d="M590.9,117.084c41.151,96.261-3.523,207.655-99.784,248.807a189.554,189.554,0,0,1-216.045-48.2c41.147,96.263,152.54,140.944,248.8,99.8s140.944-152.54,99.8-248.8a189.556,189.556,0,0,0-32.772-51.6Z" transform="translate(92.604 -54.142)" opacity="0.2" style="isolation: isolate"/>
    <path id="Path_4" data-name="Path 4" d="M260.65,717.56l19.36-5.43-.04-2.08-5.8-315.28-.29-15.72-.01-.46-1.01-55.08-1.47-79.84v-.01l-1-54.12h-.53l-1.02,58.63-1.33,76.31-.95,54.15v.4l-.04,2.23v.01l-1.84,105.55-.19,10.49-3.8,218.15Z" transform="translate(272.65 0)" fill="#3f3d56"/>
    <rect id="Rectangle_2" data-name="Rectangle 2" width="35.409" height="9.373" transform="translate(539.854 498.741) rotate(-152.234)" fill="#3f3d56"/>
    <rect id="Rectangle_3" data-name="Rectangle 3" width="89.372" height="2" transform="translate(547.27 755.716)" fill="#cbcbcb"/>
    <rect id="Rectangle_4" data-name="Rectangle 4" width="89.372" height="2" transform="translate(383.27 789.716)" fill="#cbcbcb"/>
    <rect id="Rectangle_5" data-name="Rectangle 5" width="89.372" height="2" transform="translate(128.27 763.716)" fill="#cbcbcb"/>
    <path id="Path_5" data-name="Path 5" d="M847.641,736.482V678.308S824.97,719.551,847.641,736.482Z" transform="translate(-645.688 -30.712)" fill="#f1f1f1"/>
    <path id="Path_6" data-name="Path 6" d="M796.24,736.472l42.854-39.341S793.381,708.321,796.24,736.472Z" transform="translate(-595.688 -30.712)" fill="#f1f1f1"/>
    <path id="Path_7" data-name="Path 7" d="M404.641,750.482V692.308S381.97,733.551,404.641,750.482Z" transform="translate(205.449 -47.319)" fill="#f1f1f1"/>
    <path id="Path_8" data-name="Path 8" d="M353.24,750.472l42.854-39.341S350.381,722.321,353.24,750.472Z" transform="translate(255.45 -47.319)" fill="#f1f1f1"/>
    <path id="Path_9" data-name="Path 9" d="M561.095,792.482v-72.34S532.9,771.428,561.095,792.482Z" transform="translate(-104.12 -62.239)" fill="#f1f1f1"/>
    <path id="Path_10" data-name="Path 10" d="M497.177,792.469l53.29-48.921S493.621,757.463,497.177,792.469Z" transform="translate(-41.944 -62.239)" fill="#f1f1f1"/>
    <path id="Path_12" data-name="Path 12" d="M700.072,175.579l-12.795-10.233c9.94-1.1,14.024,4.324,15.7,8.615,7.765-3.224,16.219,1,16.219,1l-25.6,9.294a19.372,19.372,0,0,1,6.481-8.677Z" transform="translate(-399.813 -54.142)" fill="#3f3d56"/>
    <path id="Path_13" data-name="Path 13" d="M230.072,171.579l-12.795-10.233c9.94-1.1,14.024,4.324,15.7,8.615,7.765-3.224,16.219,1,16.219,1l-25.6,9.294a19.372,19.372,0,0,1,6.481-8.677Z" transform="translate(540.187 -54.142)" fill="#3f3d56"/>
    <path id="Path_14" data-name="Path 14" d="M672.072,366.579l-12.795-10.233c9.94-1.1,14.024,4.324,15.7,8.615,7.765-3.224,16.219,1,16.219,1l-25.6,9.294a19.372,19.372,0,0,1,6.481-8.677Z" transform="translate(-343.813 -54.142)" fill="#3f3d56"/>
  </g>
</svg>
