<svg width="20" height="16" viewBox="0 0 20 16" fill="none" xmlns="http://www.w3.org/2000/svg">
<path d="M19.7327 2.28544C19.028 2.59164 18.2824 2.79337 17.5194 2.88426C18.3212 2.41475 18.9242 1.66884 19.2153 0.786441C18.4572 1.22972 17.6292 1.54074 16.7668 1.70619C16.4036 1.32558 15.9669 1.0228 15.483 0.816243C14.9992 0.609687 14.4784 0.503673 13.9524 0.504645C11.8224 0.504645 10.0988 2.20325 10.0988 4.29715C10.0973 4.5884 10.1307 4.87879 10.1982 5.16211C8.6709 5.09051 7.17536 4.7009 5.80727 4.01819C4.43917 3.33549 3.22864 2.37474 2.25312 1.19739C1.91088 1.77434 1.72989 2.43262 1.72906 3.10343C1.72906 4.41848 2.41515 5.58089 3.45114 6.2619C2.83735 6.24733 2.23613 6.08487 1.69853 5.78832V5.83529C1.69853 7.67479 3.02923 9.2051 4.79046 9.55343C4.45926 9.64172 4.11797 9.68645 3.77521 9.6865C3.532 9.68693 3.28933 9.66333 3.05076 9.61605C3.54038 11.1229 4.96541 12.2188 6.65344 12.2501C5.28179 13.3072 3.59776 13.8785 1.86604 13.8743C1.55865 13.8738 1.25155 13.8556 0.946289 13.8195C2.70798 14.9444 4.7558 15.5395 6.846 15.5338C13.9441 15.5338 17.822 9.75304 17.822 4.73941C17.822 4.57503 17.8177 4.41065 17.8098 4.25019C18.5625 3.7148 19.2136 3.04946 19.7327 2.28544Z" fill="white"/>
</svg>
