<svg width="21" height="16" viewBox="0 0 21 16" fill="none" xmlns="http://www.w3.org/2000/svg">
<path d="M20.5477 3.82342C20.5477 2.0622 19.2522 0.645389 17.6515 0.645389C15.4832 0.544021 13.2719 0.504883 11.012 0.504883H10.3075C8.05318 0.504883 5.83795 0.544021 3.66968 0.645781C2.07284 0.645781 0.777359 2.07042 0.777359 3.83164C0.679513 5.22458 0.638026 6.6179 0.640375 8.01123C0.636461 9.40455 0.680818 10.7992 0.773445 12.1951C0.773445 13.9563 2.06892 15.3849 3.66577 15.3849C5.94362 15.4906 8.28018 15.5375 10.6559 15.5336C13.0355 15.5414 15.3655 15.4919 17.646 15.3849C19.2467 15.3849 20.5422 13.9563 20.5422 12.1951C20.6362 10.7979 20.6792 9.40455 20.6753 8.00731C20.6842 6.61399 20.6416 5.21936 20.5477 3.82342ZM8.74201 11.8507V4.16001L14.4171 8.0034L8.74201 11.8507Z" fill="white"/>
</svg>
