<svg width="32" height="32" viewBox="0 0 32 32" fill="none" xmlns="http://www.w3.org/2000/svg">
<g clip-path="url(#clip0)">
<path d="M31.7896 9.29937C31.7896 6.48687 29.7209 4.22437 27.1646 4.22437C23.7021 4.0625 20.1709 4 16.5621 4H15.4371C11.8371 4 8.29965 4.0625 4.83715 4.225C2.28715 4.225 0.218398 6.5 0.218398 9.3125C0.0621476 11.5369 -0.00410235 13.7619 -0.000352354 15.9869C-0.00660235 18.2119 0.064231 20.439 0.212148 22.6681C0.212148 25.4806 2.2809 27.7619 4.8309 27.7619C8.4684 27.9306 12.1996 28.0056 15.9934 27.9994C19.7934 28.0119 23.5142 27.9327 27.1559 27.7619C29.7121 27.7619 31.7809 25.4806 31.7809 22.6681C31.9309 20.4369 31.9996 18.2119 31.9934 15.9806C32.0076 13.7556 31.9396 11.5285 31.7896 9.29937ZM12.9371 22.1181V9.83687L21.9996 15.9744L12.9371 22.1181Z" fill="#929292"/>
</g>
<defs>
<clipPath id="clip0">
<rect width="32" height="32" fill="white"/>
</clipPath>
</defs>
</svg>
